<svg xmlns="http://www.w3.org/2000/svg" xmlns:xlink="http://www.w3.org/1999/xlink" width="500" zoomAndPan="magnify" viewBox="0 0 375 374.999991" height="500" preserveAspectRatio="xMidYMid meet" version="1.0"><defs><g/><clipPath id="0b20b1ec51"><path d="M 190 89.824219 L 244.691406 89.824219 L 244.691406 207.574219 L 190 207.574219 Z M 190 89.824219 " clip-rule="nonzero"/></clipPath><clipPath id="ca2df01c58"><path d="M 129.941406 89.824219 L 182 89.824219 L 182 207.574219 L 129.941406 207.574219 Z M 129.941406 89.824219 " clip-rule="nonzero"/></clipPath></defs><rect x="-37.5" width="450" fill="#ffffff" y="-37.499999" height="449.999989" fill-opacity="1"/><rect x="-37.5" width="450" fill="#ffffff" y="-37.499999" height="449.999989" fill-opacity="1"/><rect x="-37.5" width="450" fill="#000000" y="-37.499999" height="449.999989" fill-opacity="1"/><g clip-path="url(#0b20b1ec51)"><path fill="#ffffff" d="M 244.667969 148.695312 C 244.667969 166.046875 237.183594 181.648438 225.265625 192.445312 L 214.84375 182.019531 C 222.441406 175.359375 227.742188 166.144531 229.398438 155.710938 L 204.566406 155.710938 L 204.566406 204.617188 C 200.109375 206.125 195.40625 207.113281 190.539062 207.511719 L 190.539062 89.878906 C 195.40625 90.277344 200.109375 91.265625 204.566406 92.773438 L 204.566406 141.679688 L 229.398438 141.679688 C 229.34375 141.335938 229.285156 140.992188 229.222656 140.652344 C 229.199219 140.523438 229.175781 140.394531 229.152344 140.265625 C 229.125 140.140625 229.101562 140.011719 229.078125 139.886719 C 229.058594 139.800781 229.042969 139.714844 229.023438 139.632812 C 228.9375 139.207031 228.839844 138.78125 228.738281 138.359375 C 228.683594 138.113281 228.621094 137.867188 228.558594 137.621094 C 228.539062 137.554688 228.523438 137.484375 228.503906 137.417969 C 228.484375 137.339844 228.460938 137.257812 228.441406 137.179688 C 228.421875 137.105469 228.402344 137.03125 228.382812 136.960938 C 228.347656 136.832031 228.3125 136.707031 228.277344 136.578125 C 228.253906 136.507812 228.234375 136.4375 228.214844 136.367188 C 228.195312 136.296875 228.175781 136.230469 228.15625 136.160156 C 228.105469 135.988281 228.054688 135.816406 228 135.648438 C 227.957031 135.507812 227.914062 135.371094 227.871094 135.230469 C 227.78125 134.957031 227.691406 134.683594 227.597656 134.410156 C 227.554688 134.28125 227.511719 134.15625 227.46875 134.03125 C 227.234375 133.367188 226.988281 132.714844 226.726562 132.066406 C 226.683594 131.960938 226.636719 131.851562 226.59375 131.742188 C 226.457031 131.40625 226.3125 131.074219 226.164062 130.742188 C 226.121094 130.644531 226.074219 130.542969 226.03125 130.441406 C 225.972656 130.316406 225.914062 130.191406 225.855469 130.066406 C 225.785156 129.90625 225.710938 129.75 225.636719 129.59375 C 225.570312 129.457031 225.503906 129.320312 225.4375 129.183594 C 225.402344 129.113281 225.371094 129.046875 225.335938 128.976562 C 225.246094 128.800781 225.160156 128.625 225.070312 128.453125 C 225.03125 128.375 224.988281 128.296875 224.949219 128.222656 C 224.832031 127.996094 224.710938 127.769531 224.585938 127.542969 C 224.511719 127.40625 224.4375 127.273438 224.363281 127.136719 C 224.328125 127.070312 224.289062 127.007812 224.253906 126.941406 C 224.207031 126.855469 224.15625 126.769531 224.109375 126.683594 C 224.042969 126.570312 223.972656 126.453125 223.90625 126.335938 C 223.84375 126.230469 223.785156 126.128906 223.722656 126.023438 C 223.613281 125.84375 223.507812 125.667969 223.398438 125.492188 C 223.332031 125.378906 223.257812 125.265625 223.1875 125.15625 C 223.117188 125.042969 223.046875 124.929688 222.976562 124.820312 C 222.925781 124.738281 222.871094 124.65625 222.816406 124.574219 C 222.691406 124.378906 222.566406 124.1875 222.4375 123.996094 C 222.300781 123.796875 222.164062 123.597656 222.027344 123.398438 C 221.96875 123.316406 221.910156 123.230469 221.847656 123.144531 C 221.78125 123.050781 221.714844 122.960938 221.648438 122.867188 C 221.5625 122.742188 221.472656 122.617188 221.378906 122.496094 C 221.378906 122.492188 221.378906 122.492188 221.375 122.488281 C 221.28125 122.359375 221.183594 122.230469 221.085938 122.101562 C 220.960938 121.933594 220.835938 121.769531 220.710938 121.609375 C 220.613281 121.480469 220.511719 121.351562 220.414062 121.226562 C 220.304688 121.085938 220.191406 120.949219 220.082031 120.8125 C 219.851562 120.527344 219.621094 120.25 219.382812 119.972656 C 219.214844 119.773438 219.042969 119.574219 218.867188 119.378906 C 218.84375 119.347656 218.8125 119.316406 218.785156 119.289062 C 218.6875 119.175781 218.589844 119.066406 218.488281 118.953125 C 218.484375 118.949219 218.480469 118.945312 218.476562 118.941406 C 218.386719 118.839844 218.292969 118.738281 218.199219 118.636719 C 218.085938 118.515625 217.972656 118.394531 217.859375 118.273438 C 217.757812 118.164062 217.65625 118.058594 217.550781 117.953125 C 217.125 117.507812 216.6875 117.074219 216.242188 116.652344 C 216.132812 116.546875 216.023438 116.441406 215.910156 116.335938 C 215.8125 116.242188 215.710938 116.148438 215.609375 116.054688 C 215.597656 116.042969 215.585938 116.035156 215.574219 116.023438 L 225.1875 104.875 C 237.148438 115.675781 244.667969 131.308594 244.667969 148.695312 Z M 244.667969 148.695312 " fill-opacity="1" fill-rule="nonzero"/></g><g clip-path="url(#ca2df01c58)"><path fill="#ffffff" d="M 181.597656 89.824219 L 181.597656 207.570312 C 176.734375 207.234375 172.035156 206.3125 167.570312 204.875 C 150.003906 199.207031 136.039062 185.527344 129.976562 168.136719 L 143.96875 163.5625 C 148.027344 174.960938 156.617188 184.203125 167.570312 189.121094 L 167.570312 108.269531 C 163.597656 110.050781 159.9375 112.40625 156.6875 115.226562 L 147.082031 104.074219 C 152.996094 98.945312 159.945312 94.976562 167.570312 92.515625 C 172.035156 91.078125 176.734375 90.15625 181.597656 89.824219 Z M 181.597656 89.824219 " fill-opacity="1" fill-rule="nonzero"/></g><g fill="#ffffff" fill-opacity="1"><g transform="translate(147.59719, 243.667183)"><g><path d="M 2.75 -2.71875 C 2.75 -2.09375 2.695312 -1.628906 2.59375 -1.328125 C 2.488281 -1.023438 2.273438 -0.765625 1.953125 -0.546875 C 1.628906 -0.328125 1.082031 -0.0820312 0.3125 0.1875 L 1.9375 3.1875 C 3.207031 2.769531 4.191406 2.335938 4.890625 1.890625 C 5.585938 1.441406 6.085938 0.90625 6.390625 0.28125 C 6.691406 -0.34375 6.84375 -1.144531 6.84375 -2.125 L 6.84375 -21.234375 L 2.75 -21.234375 Z M 2.75 -2.71875 "/></g></g></g><g fill="#ffffff" fill-opacity="1"><g transform="translate(156.776031, 243.667183)"><g><path d="M 4.375 0 L 6.25 -5 L 14.296875 -5 L 16.203125 0.3125 L 20.265625 -0.25 L 12.015625 -21.234375 L 8.578125 -21.234375 L 0.3125 0 Z M 10.203125 -15.671875 L 13.046875 -8.265625 L 7.4375 -8.265625 Z M 10.203125 -15.671875 "/></g></g></g><g fill="#ffffff" fill-opacity="1"><g transform="translate(177.350368, 243.667183)"><g><path d="M 11.359375 0 C 13.648438 0 15.472656 -0.554688 16.828125 -1.671875 C 18.179688 -2.785156 18.859375 -4.3125 18.859375 -6.25 C 18.859375 -8.613281 17.765625 -10.367188 15.578125 -11.515625 C 17.097656 -12.703125 17.859375 -13.960938 17.859375 -15.296875 C 17.859375 -17.335938 17.242188 -18.835938 16.015625 -19.796875 C 14.785156 -20.753906 13.078125 -21.234375 10.890625 -21.234375 L 2.65625 -21.234375 L 2.65625 0 Z M 10.296875 -17.859375 C 11.378906 -17.859375 12.195312 -17.660156 12.75 -17.265625 C 13.300781 -16.867188 13.578125 -16.191406 13.578125 -15.234375 C 13.578125 -14.359375 13.222656 -13.695312 12.515625 -13.25 C 11.804688 -12.800781 10.859375 -12.578125 9.671875 -12.578125 L 6.6875 -12.578125 L 6.6875 -17.859375 Z M 11.328125 -9.296875 C 12.347656 -9.296875 13.15625 -9.023438 13.75 -8.484375 C 14.34375 -7.953125 14.640625 -7.195312 14.640625 -6.21875 C 14.640625 -5.300781 14.316406 -4.59375 13.671875 -4.09375 C 13.023438 -3.59375 12.148438 -3.34375 11.046875 -3.34375 L 6.6875 -3.34375 L 6.6875 -9.296875 Z M 11.328125 -9.296875 "/></g></g></g><g fill="#ffffff" fill-opacity="1"><g transform="translate(196.988094, 243.667183)"><g><path d="M 6.6875 -3.15625 L 6.6875 -9.109375 L 14.265625 -9.109375 L 13.609375 -12.328125 L 6.6875 -12.328125 L 6.6875 -18.046875 L 15.953125 -18.046875 L 15.328125 -21.234375 L 2.65625 -21.234375 L 2.65625 0 L 17.515625 0 L 16.859375 -3.15625 Z M 6.6875 -3.15625 "/></g></g></g><g fill="#ffffff" fill-opacity="1"><g transform="translate(215.127233, 243.667183)"><g><path d="M 10.703125 0 C 13.828125 -0.0390625 16.238281 -1.003906 17.9375 -2.890625 C 19.632812 -4.773438 20.484375 -7.390625 20.484375 -10.734375 C 20.484375 -12.816406 20.125 -14.644531 19.40625 -16.21875 C 18.6875 -17.789062 17.59375 -19.019531 16.125 -19.90625 C 14.65625 -20.789062 12.847656 -21.234375 10.703125 -21.234375 L 2.65625 -21.234375 L 2.65625 0 Z M 10.859375 -17.796875 C 12.691406 -17.796875 14.054688 -17.1875 14.953125 -15.96875 C 15.847656 -14.75 16.296875 -13.003906 16.296875 -10.734375 C 16.296875 -8.203125 15.800781 -6.347656 14.8125 -5.171875 C 13.820312 -3.992188 12.429688 -3.40625 10.640625 -3.40625 L 6.6875 -3.40625 L 6.6875 -17.796875 Z M 10.859375 -17.796875 "/></g></g></g></svg>