<svg width="16" height="16" viewBox="0 0 16 16" fill="none" xmlns="http://www.w3.org/2000/svg">
  <path
    d="M12.2706 4.6889C12.8004 4.6889 13.2299 4.2594 13.2299 3.72958C13.2299 3.19976 12.8004 2.77026 12.2706 2.77026C11.7408 2.77026 11.3113 3.19976 11.3113 3.72958C11.3113 4.2594 11.7408 4.6889 12.2706 4.6889Z"
    fill="white" />
  <path
    d="M8.00269 3.8916C5.73406 3.8916 3.89743 5.73024 3.89743 7.99686C3.89743 10.2655 5.73606 12.1021 8.00269 12.1021C10.2713 12.1021 12.108 10.2635 12.108 7.99686C12.108 5.72824 10.2693 3.8916 8.00269 3.8916V3.8916ZM8.00269 10.6615C6.53005 10.6615 5.33807 9.46884 5.33807 7.99686C5.33807 6.52489 6.53072 5.33224 8.00269 5.33224C9.47467 5.33224 10.6673 6.52489 10.6673 7.99686C10.668 9.46884 9.47533 10.6615 8.00269 10.6615V10.6615Z"
    fill="white" />
</svg>